<svg width="24" height="24" viewBox="0 0 24 24" fill="none" xmlns="http://www.w3.org/2000/svg">
<path d="M6 2H15C15.2638 2.00376 15.5154 2.11159 15.7 2.3L19.7 6.3C19.8884 6.48463 19.9962 6.73623 20 7V20C20 20.5304 19.7893 21.0391 19.4142 21.4142C19.0391 21.7893 18.5304 22 18 22H6C5.46957 22 4.96086 21.7893 4.58579 21.4142C4.21071 21.0391 4 20.5304 4 20V4C4 2.9 4.9 2 6 2ZM15 4.41V7H17.59L15 4.41ZM18 9H15C14.4696 9 13.9609 8.78929 13.5858 8.41421C13.2107 8.03914 13 7.53043 13 7V4H6V20H18V9Z" fill="#6B6B6B"/>
</svg>
