<svg width="26" height="28" viewBox="0 0 26 28" fill="none" xmlns="http://www.w3.org/2000/svg">
<path fill-rule="evenodd" clip-rule="evenodd" d="M9.675 18.2564C7.89388 18.2564 6.45 19.789 6.45 21.6795C6.45 22.3097 6.9313 22.8205 7.525 22.8205H18.275C18.8687 22.8205 19.35 22.3097 19.35 21.6795C19.35 19.789 17.9061 18.2564 16.125 18.2564H9.675ZM4.3 21.6795C4.3 18.5286 6.70647 15.9744 9.675 15.9744H16.125C19.0935 15.9744 21.5 18.5286 21.5 21.6795C21.5 23.57 20.0561 25.1026 18.275 25.1026H7.525C5.74389 25.1026 4.3 23.57 4.3 21.6795Z" fill="#A7BDB4"/>
<path fill-rule="evenodd" clip-rule="evenodd" d="M12.9 4.56416C11.1189 4.56416 9.675 6.09672 9.675 7.98723C9.675 9.87775 11.1189 11.4103 12.9 11.4103C14.6811 11.4103 16.125 9.87775 16.125 7.98723C16.125 6.09672 14.6811 4.56416 12.9 4.56416ZM7.525 7.98723C7.525 4.83638 9.93147 2.2821 12.9 2.2821C15.8685 2.2821 18.275 4.83638 18.275 7.98723C18.275 11.1381 15.8685 13.6924 12.9 13.6924C9.93147 13.6924 7.525 11.1381 7.525 7.98723Z" fill="#A7BDB4"/>
</svg>
